<svg width="100" height="100" viewBox="0 0 100 100" fill="none" xmlns="http://www.w3.org/2000/svg">
<path d="M66.6667 70.8333V58.3333H37.5V41.6666H66.6667V29.1666L87.5 50L66.6667 70.8333ZM58.3333 8.33331C60.5435 8.33331 62.6631 9.21129 64.2259 10.7741C65.7887 12.3369 66.6667 14.4565 66.6667 16.6666V25H58.3333V16.6666H20.8333V83.3333H58.3333V75H66.6667V83.3333C66.6667 85.5435 65.7887 87.6631 64.2259 89.2259C62.6631 90.7887 60.5435 91.6667 58.3333 91.6667H20.8333C18.6232 91.6667 16.5036 90.7887 14.9408 89.2259C13.378 87.6631 12.5 85.5435 12.5 83.3333V16.6666C12.5 14.4565 13.378 12.3369 14.9408 10.7741C16.5036 9.21129 18.6232 8.33331 20.8333 8.33331H58.3333Z" fill="black"/>
</svg>
